<svg width="195" height="192" viewBox="0 0 195 192" fill="none" xmlns="http://www.w3.org/2000/svg">
<g clip-path="url(#clip0_2007_47)">
<path d="M0 54.2969C0 58.5938 3.51562 62.1094 7.8125 62.1094C12.207 62.1094 15.7227 58.5938 15.7227 54.2969V35.8398C15.7227 23.4375 23.1445 15.918 35.6445 15.918H54.4922C58.7891 15.918 62.4023 12.3047 62.4023 8.00781C62.4023 3.71094 58.7891 0.195312 54.4922 0.195312H35.6445C13.4766 0.195312 0 13.7695 0 35.8398V54.2969ZM191.211 54.2969V35.8398C191.211 13.7695 177.734 0.195312 155.566 0.195312H136.621C132.324 0.195312 128.809 3.71094 128.809 8.00781C128.809 12.3047 132.324 15.918 136.621 15.918H155.566C168.066 15.918 175.488 23.4375 175.488 35.8398V54.2969C175.488 58.5938 179.004 62.1094 183.301 62.1094C187.598 62.1094 191.211 58.5938 191.211 54.2969ZM0 137.207V155.664C0 177.734 13.4766 191.309 35.6445 191.309H54.4922C58.7891 191.309 62.4023 187.793 62.4023 183.496C62.4023 179.199 58.7891 175.586 54.4922 175.586H35.6445C23.1445 175.586 15.7227 168.066 15.7227 155.664V137.207C15.7227 132.91 12.207 129.297 7.8125 129.297C3.51562 129.297 0 132.91 0 137.207ZM191.211 137.207C191.211 132.91 187.598 129.297 183.301 129.297C179.004 129.297 175.488 132.91 175.488 137.207V155.664C175.488 168.066 168.066 175.586 155.566 175.586H136.621C132.324 175.586 128.809 179.199 128.809 183.496C128.809 187.793 132.324 191.309 136.621 191.309H155.566C177.734 191.309 191.211 177.734 191.211 155.664V137.207Z" fill="#b0a4f5"/>
<path d="M95.7031 150.098C125.684 150.098 150.098 125.684 150.098 95.7031C150.098 65.625 125.684 41.2109 95.7031 41.2109C65.625 41.2109 41.2109 65.625 41.2109 95.7031C41.2109 125.684 65.625 150.098 95.7031 150.098ZM95.7031 137.5C72.5586 137.5 53.8086 118.75 53.8086 95.7031C53.8086 72.6562 72.5586 53.9062 95.7031 53.9062C118.75 53.9062 137.5 72.6562 137.5 95.7031C137.5 118.75 118.75 137.5 95.7031 137.5ZM95.7031 123.438C111.035 123.438 123.438 111.035 123.438 95.7031C123.438 80.2734 111.035 67.8711 95.7031 67.8711C80.2734 67.8711 67.8711 80.2734 67.8711 95.7031C67.8711 111.035 80.2734 123.438 95.7031 123.438Z" fill="#b0a4f5"/>
</g>
<defs>
<clipPath id="clip0_2007_47">
<rect width="194.824" height="191.309" fill="white"/>
</clipPath>
</defs>
</svg>
