<svg width="1891" height="1007" viewBox="0 0 1891 1007" fill="none" xmlns="http://www.w3.org/2000/svg">
<path d="M16.3974 464V428.829L155.894 166.47V165.282H19.7244V121.08H210.79V156.251L71.7684 418.61V419.798H214.355V464H16.3974ZM331.988 468.278C312.343 468.278 295.629 463.366 281.845 453.544C268.062 443.721 257.527 429.225 250.239 410.055C242.951 390.885 239.307 367.358 239.307 339.475V338.999C239.307 311.116 242.951 287.668 250.239 268.657C257.685 249.487 268.3 234.991 282.083 225.168C295.866 215.187 312.502 210.196 331.988 210.196C351.634 210.196 368.348 215.187 382.131 225.168C395.914 234.991 406.45 249.487 413.738 268.657C421.026 287.668 424.669 311.116 424.669 338.999V339.475C424.669 367.358 421.105 390.964 413.975 410.293C406.846 429.462 396.311 443.959 382.369 453.781C368.585 463.445 351.792 468.278 331.988 468.278ZM331.988 426.928C341.494 426.928 349.495 423.68 355.99 417.184C362.486 410.689 367.397 401.024 370.724 388.192C374.21 375.2 375.952 358.961 375.952 339.475V338.999C375.952 319.671 374.21 303.511 370.724 290.52C367.397 277.529 362.486 267.865 355.99 261.528C349.495 255.032 341.494 251.784 331.988 251.784C322.641 251.784 314.72 255.032 308.224 261.528C301.728 268.023 296.738 277.767 293.252 290.758C289.925 303.59 288.262 319.671 288.262 338.999V339.475C288.262 358.961 289.925 375.2 293.252 388.192C296.738 401.024 301.728 410.689 308.224 417.184C314.72 423.68 322.641 426.928 331.988 426.928ZM544.917 468.278C525.272 468.278 508.558 463.366 494.774 453.544C480.991 443.721 470.455 429.225 463.168 410.055C455.88 390.885 452.236 367.358 452.236 339.475V338.999C452.236 311.116 455.88 287.668 463.168 268.657C470.614 249.487 481.229 234.991 495.012 225.168C508.795 215.187 525.43 210.196 544.917 210.196C564.562 210.196 581.277 215.187 595.06 225.168C608.843 234.991 619.379 249.487 626.667 268.657C633.954 287.668 637.598 311.116 637.598 338.999V339.475C637.598 367.358 634.034 390.964 626.904 410.293C619.775 429.462 609.239 443.959 595.298 453.781C581.514 463.445 564.721 468.278 544.917 468.278ZM544.917 426.928C554.423 426.928 562.424 423.68 568.919 417.184C575.415 410.689 580.326 401.024 583.653 388.192C587.138 375.2 588.881 358.961 588.881 339.475V338.999C588.881 319.671 587.138 303.511 583.653 290.52C580.326 277.529 575.415 267.865 568.919 261.528C562.424 255.032 554.423 251.784 544.917 251.784C535.57 251.784 527.648 255.032 521.153 261.528C514.657 268.023 509.667 277.767 506.181 290.758C502.854 303.59 501.191 319.671 501.191 338.999V339.475C501.191 358.961 502.854 375.2 506.181 388.192C509.667 401.024 514.657 410.689 521.153 417.184C527.648 423.68 535.57 426.928 544.917 426.928ZM721.011 363.239V282.203H726.952L827.476 121.08H881.658L780.66 279.588H773.768L721.011 363.239ZM676.096 464V121.08H725.526V464H676.096ZM833.654 464L746.201 303.59L778.759 263.429L888.55 464H833.654ZM984.32 468.278C965.151 468.278 948.832 463.366 935.366 453.544C922.058 443.721 911.839 429.225 904.71 410.055C897.739 390.885 894.253 367.358 894.253 339.475V339.237C894.253 311.353 897.66 287.827 904.472 268.657C911.443 249.487 921.424 234.991 934.415 225.168C947.565 215.187 963.408 210.196 981.944 210.196C1000.48 210.196 1016.24 215.108 1029.24 224.93C1042.23 234.753 1052.13 249.091 1058.94 267.944C1065.75 286.797 1069.16 309.611 1069.16 336.385V353.258H920.394V318.324H1045.87L1022.34 350.644V326.642C1022.34 310.007 1020.68 296.065 1017.35 284.817C1014.03 273.568 1009.35 265.092 1003.33 259.389C997.47 253.527 990.499 250.596 982.419 250.596C974.339 250.596 967.289 253.527 961.269 259.389C955.407 265.251 950.813 273.885 947.486 285.292C944.159 296.54 942.495 310.324 942.495 326.642V350.882C942.495 367.517 944.238 381.538 947.723 392.945C951.367 404.351 956.358 412.986 962.695 418.848C969.032 424.71 976.399 427.641 984.796 427.641C991.45 427.641 997.312 426.215 1002.38 423.363C1007.45 420.511 1011.65 416.471 1014.98 411.243C1018.46 405.856 1020.84 399.519 1022.11 392.232L1023.06 387.003H1067.26L1066.55 392.945C1064.8 404.351 1061.71 414.649 1057.28 423.838C1053 433.027 1047.38 440.949 1040.4 447.603C1033.43 454.257 1025.2 459.406 1015.69 463.049C1006.34 466.535 995.886 468.278 984.32 468.278ZM1186.32 468.278C1167.15 468.278 1150.83 463.366 1137.36 453.544C1124.05 443.721 1113.84 429.225 1106.71 410.055C1099.74 390.885 1096.25 367.358 1096.25 339.475V339.237C1096.25 311.353 1099.66 287.827 1106.47 268.657C1113.44 249.487 1123.42 234.991 1136.41 225.168C1149.56 215.187 1165.4 210.196 1183.94 210.196C1202.48 210.196 1218.24 215.108 1231.23 224.93C1244.22 234.753 1254.13 249.091 1260.94 267.944C1267.75 286.797 1271.16 309.611 1271.16 336.385V353.258H1122.39V318.324H1247.87L1224.34 350.644V326.642C1224.34 310.007 1222.68 296.065 1219.35 284.817C1216.02 273.568 1211.35 265.092 1205.33 259.389C1199.47 253.527 1192.5 250.596 1184.42 250.596C1176.34 250.596 1169.29 253.527 1163.27 259.389C1157.4 265.251 1152.81 273.885 1149.48 285.292C1146.16 296.54 1144.49 310.324 1144.49 326.642V350.882C1144.49 367.517 1146.24 381.538 1149.72 392.945C1153.36 404.351 1158.35 412.986 1164.69 418.848C1171.03 424.71 1178.4 427.641 1186.79 427.641C1193.45 427.641 1199.31 426.215 1204.38 423.363C1209.45 420.511 1213.65 416.471 1216.97 411.243C1220.46 405.856 1222.84 399.519 1224.1 392.232L1225.05 387.003H1269.26L1268.54 392.945C1266.8 404.351 1263.71 414.649 1259.27 423.838C1255 433.027 1249.37 440.949 1242.4 447.603C1235.43 454.257 1227.19 459.406 1217.69 463.049C1208.34 466.535 1197.88 468.278 1186.32 468.278ZM1305.85 547.175V214.236H1353.86V249.408H1354.81C1357.98 241.803 1362.25 235.149 1367.64 229.446C1373.03 223.742 1379.44 219.306 1386.89 216.138C1394.34 212.811 1402.73 211.147 1412.08 211.147C1428.71 211.147 1442.81 216.138 1454.38 226.119C1465.95 236.1 1474.74 250.596 1480.76 269.607C1486.78 288.46 1489.79 311.433 1489.79 338.524V338.999C1489.79 366.249 1486.7 389.459 1480.52 408.629C1474.5 427.641 1465.71 442.137 1454.14 452.118C1442.58 461.94 1428.56 466.852 1412.08 466.852C1402.89 466.852 1394.57 465.426 1387.13 462.574C1379.68 459.564 1373.26 455.207 1367.88 449.504C1362.49 443.8 1358.13 436.829 1354.81 428.591H1353.86V547.175H1305.85ZM1397.35 424.551C1406.69 424.551 1414.61 421.303 1421.11 414.808C1427.61 408.312 1432.52 398.727 1435.84 386.053C1439.33 373.379 1441.07 357.694 1441.07 338.999V338.524C1441.07 320.146 1439.33 304.62 1435.84 291.946C1432.52 279.272 1427.61 269.766 1421.11 263.429C1414.61 256.933 1406.69 253.685 1397.35 253.685C1387.05 253.685 1378.65 257.488 1372.16 265.092C1365.82 272.538 1361.14 282.678 1358.13 295.511C1355.28 308.343 1353.86 322.84 1353.86 338.999V339.475C1353.86 355.476 1355.36 369.893 1358.37 382.726C1361.38 395.559 1366.06 405.777 1372.39 413.382C1378.89 420.828 1387.21 424.551 1397.35 424.551ZM1607.42 468.278C1588.25 468.278 1571.93 463.366 1558.47 453.544C1545.16 443.721 1534.94 429.225 1527.81 410.055C1520.84 390.885 1517.36 367.358 1517.36 339.475V339.237C1517.36 311.353 1520.76 287.827 1527.57 268.657C1534.54 249.487 1544.53 234.991 1557.52 225.168C1570.67 215.187 1586.51 210.196 1605.05 210.196C1623.58 210.196 1639.35 215.108 1652.34 224.93C1665.33 234.753 1675.23 249.091 1682.04 267.944C1688.85 286.797 1692.26 309.611 1692.26 336.385V353.258H1543.5V318.324H1668.97L1645.45 350.644V326.642C1645.45 310.007 1643.78 296.065 1640.45 284.817C1637.13 273.568 1632.45 265.092 1626.43 259.389C1620.57 253.527 1613.6 250.596 1605.52 250.596C1597.44 250.596 1590.39 253.527 1584.37 259.389C1578.51 265.251 1573.91 273.885 1570.59 285.292C1567.26 296.54 1565.6 310.324 1565.6 326.642V350.882C1565.6 367.517 1567.34 381.538 1570.83 392.945C1574.47 404.351 1579.46 412.986 1585.8 418.848C1592.13 424.71 1599.5 427.641 1607.9 427.641C1614.55 427.641 1620.41 426.215 1625.48 423.363C1630.55 420.511 1634.75 416.471 1638.08 411.243C1641.56 405.856 1643.94 399.519 1645.21 392.232L1646.16 387.003H1690.36L1689.65 392.945C1687.9 404.351 1684.82 414.649 1680.38 423.838C1676.1 433.027 1670.48 440.949 1663.51 447.603C1656.54 454.257 1648.3 459.406 1638.79 463.049C1629.44 466.535 1618.99 468.278 1607.42 468.278ZM1726.96 464V214.236H1774.96V252.497H1775.91C1779.24 237.129 1784.86 226.277 1792.78 219.94C1800.71 213.444 1810.29 210.196 1821.54 210.196C1824.71 210.196 1827.64 210.434 1830.33 210.909C1833.03 211.226 1835.4 211.702 1837.46 212.335V258.676C1835.09 257.725 1832.15 256.933 1828.67 256.299C1825.34 255.666 1821.7 255.349 1817.74 255.349C1808.39 255.349 1800.55 257.725 1794.21 262.478C1787.87 267.231 1783.04 274.202 1779.71 283.391C1776.55 292.421 1774.96 303.432 1774.96 316.423V464H1726.96Z" fill="currentColor"/>
<path d="M31.369 889.106V546.186H97.6716L221.246 819.714H222.672L346.485 546.186H412.55V889.106H360.506V634.827H335.791L390.686 561.633L243.11 889.106H201.047L53.2322 561.633L108.128 634.827H83.6506V889.106H31.369ZM590.307 894.334C562.899 894.334 539.372 889.106 519.727 878.649C500.082 868.193 484.952 853.301 474.337 833.972C463.881 814.644 458.652 791.593 458.652 764.818V764.58C458.652 738.281 463.96 715.309 474.575 695.664C485.189 676.018 500.161 660.809 519.489 650.036C538.818 639.104 561.394 633.718 587.218 633.876C613.359 633.876 635.855 639.263 654.709 650.036C673.562 660.651 688.058 675.543 698.197 694.713C708.337 713.883 713.407 736.301 713.407 761.966V777.651H485.981V740.578H683.701L660.412 772.898V755.075C660.412 738.123 657.323 723.864 651.144 712.299C645.124 700.575 636.648 691.782 625.716 685.92C614.943 679.9 602.268 676.89 587.693 676.89C572.642 676.89 559.493 679.9 548.244 685.92C537.154 691.941 528.44 700.892 522.103 712.774C515.925 724.656 512.835 739.232 512.835 756.501V772.66C512.835 790.087 516.162 804.663 522.816 816.387C529.629 827.952 538.897 836.666 550.621 842.528C562.503 848.389 576.128 851.32 591.495 851.32C602.585 851.32 612.566 849.894 621.438 847.043C630.31 844.033 637.757 839.993 643.777 834.923C649.956 829.695 654.392 823.754 657.085 817.1L657.798 815.199H710.317L709.604 817.575C706.911 828.507 702.158 838.646 695.346 847.993C688.692 857.182 680.136 865.262 669.68 872.233C659.382 879.204 647.579 884.67 634.271 888.63C620.963 892.433 606.308 894.334 590.307 894.334ZM858.369 894.334C834.605 894.334 813.93 888.947 796.344 878.174C778.917 867.401 765.451 852.271 755.945 832.784C746.597 813.139 741.924 790.246 741.924 764.105V763.867C741.924 737.568 746.677 714.675 756.182 695.188C765.688 675.702 779.155 660.651 796.582 650.036C814.009 639.263 834.446 633.876 857.894 633.876C871.994 633.876 884.906 635.857 896.63 639.817C908.354 643.778 918.652 649.482 927.524 656.928C936.554 664.374 943.842 673.088 949.387 683.069H950.575V546.186H1005.47V889.106H950.575V844.904H949.387C943.842 855.043 936.633 863.836 927.761 871.282C919.048 878.57 908.829 884.274 897.105 888.393C885.54 892.354 872.628 894.334 858.369 894.334ZM873.816 849.182C889.025 849.182 902.413 845.696 913.978 838.725C925.543 831.596 934.574 821.694 941.069 809.02C947.565 796.187 950.813 781.215 950.813 764.105V763.867C950.813 746.757 947.565 731.865 941.069 719.19C934.574 706.516 925.543 696.693 913.978 689.723C902.413 682.593 889.025 679.029 873.816 679.029C857.973 679.029 844.348 682.514 832.941 689.485C821.534 696.297 812.742 706.041 806.563 718.715C800.543 731.231 797.532 746.282 797.532 763.867V764.105C797.532 781.691 800.543 796.821 806.563 809.495C812.742 822.169 821.534 831.992 832.941 838.963C844.348 845.775 857.973 849.182 873.816 849.182ZM1059.65 889.106V639.104H1114.31V889.106H1059.65ZM1086.98 601.081C1078.11 601.081 1070.59 598.151 1064.41 592.289C1058.39 586.268 1055.38 579.06 1055.38 570.663C1055.38 562.108 1058.39 554.899 1064.41 549.038C1070.59 543.176 1078.11 540.245 1086.98 540.245C1096.01 540.245 1103.54 543.176 1109.56 549.038C1115.58 554.899 1118.59 562.108 1118.59 570.663C1118.59 579.06 1115.58 586.268 1109.56 592.289C1103.54 598.151 1096.01 601.081 1086.98 601.081ZM1287.79 849.182C1303 849.182 1316.39 845.696 1327.95 838.725C1339.52 831.596 1348.55 821.694 1355.04 809.02C1361.54 796.187 1364.79 781.215 1364.79 764.105V763.867C1364.79 746.757 1361.54 731.865 1355.04 719.19C1348.55 706.516 1339.52 696.693 1327.95 689.723C1316.39 682.593 1303 679.029 1287.79 679.029C1271.95 679.029 1258.32 682.514 1246.92 689.485C1235.51 696.297 1226.72 706.041 1220.54 718.715C1214.52 731.231 1211.51 746.282 1211.51 763.867V764.105C1211.51 781.691 1214.52 796.821 1220.54 809.495C1226.72 822.169 1235.51 831.992 1246.92 838.963C1258.32 845.775 1271.95 849.182 1287.79 849.182ZM1272.34 894.334C1248.58 894.334 1227.91 888.947 1210.32 878.174C1192.89 867.401 1179.43 852.271 1169.92 832.784C1160.57 813.139 1155.9 790.246 1155.9 764.105V763.867C1155.9 737.568 1160.65 714.675 1170.16 695.188C1179.66 675.702 1193.13 660.651 1210.56 650.036C1227.98 639.263 1248.42 633.876 1271.87 633.876C1285.97 633.876 1298.88 635.857 1310.61 639.817C1322.33 643.778 1332.63 649.482 1341.5 656.928C1350.53 664.374 1357.82 673.088 1363.36 683.069H1364.55V639.104H1419.45V889.106H1364.55V844.904H1363.36C1357.82 855.043 1350.61 863.836 1341.74 871.282C1333.02 878.57 1322.8 884.274 1311.08 888.393C1299.52 892.354 1286.6 894.334 1272.34 894.334Z" fill="currentColor"/>
<path d="M1690.88 560.714C1698.73 561.277 1706.96 562.361 1714.29 565.265C1721.61 568.168 1718.79 567.692 1721.26 568.602C1727.98 559.804 1735.57 552.696 1744.75 546.542C1747.79 544.462 1757.28 538.047 1760.23 537.311C1767.64 535.447 1769.37 547.279 1769.72 552.393C1770.93 570.335 1766.81 588.061 1754.77 601.627C1752.56 604.097 1749.74 606.221 1747.66 608.734L1773.62 631.314C1778.39 635.995 1782.5 640.936 1784.24 647.567C1785.97 654.198 1785.88 661.305 1790.43 669.973C1804.26 696.237 1841.75 729.825 1840.36 760.033C1839.84 771.258 1835.25 783.437 1826.49 790.804C1824.37 792.581 1820.69 794.142 1819.13 795.572C1817.96 796.655 1817.22 798.909 1815.4 800.513C1800.62 813.904 1771.24 809.007 1761.27 791.411C1757.24 784.26 1759.92 782.917 1751.86 777.846C1736.74 768.311 1717.45 767.531 1700.76 761.984C1697.04 786.34 1692.92 810.697 1688.07 834.881C1685.25 848.923 1682.35 864.049 1678.53 877.787C1674.72 891.526 1674.15 898.07 1662.37 891.569C1655.6 881.428 1649.19 870.853 1640.96 861.838C1632.72 852.824 1619.59 843.939 1609.49 834.361C1587.21 813.168 1572.87 784.607 1571.57 753.532L1570.96 751.149C1567.41 754.182 1565.15 758.993 1562.25 762.807C1559.35 766.621 1558.7 766.534 1557.31 768.701C1557.53 785.17 1563.46 802.116 1570.79 816.722C1582.62 840.255 1604.9 857.244 1620.98 877.484C1637.06 897.723 1628.69 887.625 1629.21 889.619C1629.73 891.613 1628.78 890.269 1628.17 890.226C1624.27 889.922 1615.69 886.845 1611.79 885.372C1577.29 872.413 1552.8 838.955 1544.92 803.59C1543.36 796.525 1543.05 789.418 1541.66 782.57C1540.28 775.722 1541.49 781.746 1541.01 781.486L1530.18 787.987C1530.74 797.565 1531.52 806.84 1533.6 816.245C1536.9 831.24 1542.88 845.716 1549.51 859.498C1549.08 859.845 1543.96 856.291 1543.14 855.684C1522.81 841.122 1521.08 818.108 1515.23 796.049C1512.32 785.04 1507.12 780.88 1499.45 773.252C1498.24 772.038 1496.42 771.778 1496.63 769.611C1496.85 767.444 1503.79 758.083 1505.39 755.353C1519.39 731.386 1528.92 704.255 1540.36 678.945C1561.9 631.098 1589.9 582.254 1643.47 566.001C1645.68 559.37 1647.72 552.783 1651.31 546.759C1654.91 540.734 1660.03 534.06 1669.91 539.174C1678.31 543.508 1686.16 552.826 1690.93 560.844L1690.88 560.714ZM1684.73 633.611L1688.98 625.94C1695.3 606.914 1691.4 584.291 1681.05 567.345C1677.06 560.801 1671.47 554.083 1664.62 550.529C1662.24 550.746 1657.12 564.311 1656.39 566.868C1651.57 584.031 1653 601.02 1662.5 616.232C1671.99 631.444 1679.75 636.472 1667.26 634.868C1661.41 634.131 1658.47 628.367 1654.87 624.727C1651.27 621.086 1653.96 623.513 1653.13 623.643C1651.62 627.76 1647.28 634.045 1646.63 638.205C1645.72 644.316 1646.5 653.548 1646.63 659.832C1647.28 690.04 1650.49 722.544 1663.45 750.065L1670.47 760.597C1652.87 754.486 1646.03 739.837 1640.87 723.238C1634.11 701.438 1631.59 678.641 1632.72 655.931C1632.81 654.371 1634.11 644.923 1633.59 644.446L1632.24 644.706C1628.47 651.727 1622.67 657.752 1619.2 664.946C1615.73 672.14 1617.6 670.97 1617.51 674.091C1616.73 699.444 1626.26 744.951 1642.43 764.931C1652.4 777.196 1666.61 787.554 1681.44 793.101L1688.46 758.603C1683.6 755.266 1679.05 752.319 1675.19 747.768C1657.38 726.835 1659.33 703.865 1665.01 678.641C1670.69 653.418 1667.96 668.023 1669.13 662.606C1669.73 661.825 1669.91 662.692 1669.99 663.256C1670.99 670.147 1671.86 678.425 1672.16 685.359C1672.94 704.255 1668.3 717.82 1681.26 734.333C1684.12 737.93 1689.19 743.434 1694.26 741.917C1688.59 731.472 1683.73 718.384 1687.63 706.465C1692.18 692.683 1705.88 699.184 1716.28 701.048C1723.26 702.305 1730.8 702.045 1737.39 704.212C1746.79 707.289 1754.81 714.31 1761.01 721.764C1760.88 722.241 1759.97 721.938 1759.62 721.851C1755.16 720.897 1750.56 719.121 1745.92 718.21C1735.18 716 1724.91 715.783 1713.98 715.48C1710.13 715.393 1706.88 713.79 1703.8 717.43C1697.04 725.492 1705.71 740.747 1706.4 749.935C1706.44 750.455 1706.7 750.672 1707.14 750.932C1708.31 751.625 1716.11 753.532 1717.54 753.576C1718.97 753.619 1718.45 753.706 1718.79 753.186C1719.14 752.665 1717.54 748.158 1717.36 747.205C1716.5 741.917 1716.19 734.983 1721.91 732.469C1731.06 728.482 1756.11 730.779 1765.21 735.373C1765.69 735.59 1766.03 735.156 1765.82 736.283C1759.1 740.01 1752.34 741.137 1744.8 741.917C1740.59 742.351 1733.88 741.007 1731.23 745.254C1729.15 748.548 1729.89 752.622 1730.28 756.219C1736.74 756.869 1743.58 758.646 1749.35 761.637C1750.3 762.114 1757.67 767.054 1758.02 766.621C1758.02 765.884 1757.93 765.104 1758.1 764.324C1759.79 757.173 1771.63 747.335 1776.61 741.224C1778 739.534 1784.32 731.256 1783.93 729.565C1773.62 719.727 1764.39 709.022 1753.64 699.618C1742.89 690.213 1737.73 686.442 1728.94 680.982C1728.33 680.722 1724.95 684.059 1723.86 684.622C1713.38 690.17 1705.66 678.165 1704.15 669.193C1702.54 668.76 1695.74 667.676 1695.13 666.289L1699.59 663.386C1707.14 660.005 1716.45 656.798 1724.6 659.789C1732.75 662.779 1738.17 672.314 1743.89 678.641C1747.75 682.932 1752.34 686.746 1756.24 690.993C1766.68 702.261 1777.17 713.53 1786.79 725.448C1792.17 718.47 1800.32 716.607 1808.68 715.697C1803.57 707.722 1797.33 700.398 1791.86 692.64C1786.53 685.056 1778.52 674.437 1775.87 665.726C1773.23 657.015 1774.36 653.331 1772.36 648.434C1770.2 643.189 1759.01 635.302 1754.29 631.401C1753.08 630.361 1749.83 626.937 1748.87 626.417C1747.92 625.897 1748.05 626.157 1747.57 626.2C1749.05 631.011 1751.08 635.692 1753.25 640.242C1764.69 664.252 1777.78 685.402 1791 708.242C1792.26 710.366 1793.64 712.663 1794.38 715.047C1789.78 709.759 1784.97 704.602 1780.51 699.228C1776.91 694.85 1773.62 690.213 1770.07 685.836C1753.64 665.509 1735.22 646.223 1735.78 617.836L1728.07 612.765C1726.25 622.69 1726.55 631.748 1729.07 641.456C1729.72 643.97 1730.71 647.74 1731.75 650.037C1732.79 652.334 1733.23 651.554 1733.27 652.637C1729.41 649.084 1724.12 647.263 1720.27 643.753C1710.26 634.695 1712.6 618.312 1713.72 606.307L1703.37 604.097C1702.15 616.882 1696.91 628.194 1684.73 633.568V633.611ZM1623.62 589.838C1623.14 589.752 1622.8 589.838 1622.32 590.055C1620.07 591.182 1614 596.209 1611.7 598.073C1609.4 599.936 1605.42 603.274 1605.46 603.837L1625.96 633.178C1627.22 633.005 1630.6 627.76 1631.81 626.417C1634.28 623.687 1637.06 621.129 1640.05 619.049L1623.58 589.795L1623.62 589.838ZM1599.78 671.75L1609.27 652.941L1583.53 626.33C1582.75 626.417 1575.69 637.859 1574.73 639.506C1573.78 641.152 1570.4 646.917 1570.75 647.437L1599.78 671.707V671.75ZM1577.68 715.09L1586.61 695.154L1556.66 674.784L1546.95 697.061C1553.28 700.788 1560.04 703.822 1566.28 707.636C1569.4 709.542 1573.82 713.4 1576.51 714.743C1576.9 714.917 1577.25 715.133 1577.68 715.09ZM1600.22 698.621C1599.44 698.448 1599.35 698.838 1599 699.358C1596.45 702.695 1593.76 709.759 1591.81 713.833C1590.99 715.567 1588.91 718.297 1588.34 719.901C1586.52 725.448 1590.25 746.338 1591.72 752.882C1597.14 777.412 1608.88 798.259 1627.56 814.988C1640.18 826.3 1653.65 832.801 1663.1 847.926C1665.05 851.003 1666.35 854.774 1668.17 857.548C1669.99 860.321 1668.13 858.328 1669.13 858.111L1675.97 823.743C1665.36 811.607 1650.66 804.933 1638.75 794.185C1612.01 770.001 1602.34 733.596 1600.17 698.621H1600.22ZM1526.54 742.827C1535.42 746.165 1543.92 750.672 1551.89 755.829L1562.51 738.753L1534.12 725.101C1532.74 726.922 1525.89 742.134 1526.54 742.871V742.827ZM1809.55 767.531V761.247C1809.55 760.64 1808.03 756.653 1807.6 755.829C1807.16 755.006 1804.13 750.108 1803.13 749.848C1788.01 751.799 1798.28 770.608 1809.5 767.574L1809.55 767.531Z" fill="currentColor"/>
<path d="M1669.37 575.476C1674.74 585.91 1679.97 598.155 1678.89 610.185C1677.81 622.214 1678.16 614.971 1677.38 615.143C1667.21 607.08 1665.05 587.807 1668.51 576.122C1671.97 564.438 1668.29 575.389 1669.37 575.519V575.476Z" fill="currentColor"/>
</svg>
