<svg width="308" height="197" viewBox="0 0 308 197" fill="none" xmlns="http://www.w3.org/2000/svg">
<g clip-path="url(#clip0_443_3975)">
<path d="M0 109.258C0 161.407 49.0234 196.172 123.145 196.172C197.363 196.172 246.387 161.407 246.387 109.258C246.387 87.3831 195.703 69.6097 123.145 69.6097C50.6836 69.6097 0 87.3831 0 109.258ZM15.7227 109.258C15.7227 98.7113 66.8945 84.3558 123.145 84.3558C179.395 84.3558 230.664 98.7113 230.664 109.258C230.664 119.415 182.617 132.891 123.145 132.891C63.6719 132.891 15.7227 119.415 15.7227 109.258ZM18.75 128.887C37.9883 140.313 79.6875 148.614 123.145 148.614C166.699 148.614 208.398 140.313 227.637 128.887C219.531 159.942 178.027 180.45 123.145 180.45C68.3594 180.45 26.8555 159.942 18.75 128.887ZM225.977 100.762L291.211 60.8206C320.508 43.0472 293.262 0.0784069 258.203 25.1761L180.176 81.3285L196.68 85.7229L269.434 36.1136C283.691 26.2503 292.676 41.387 281.543 48.3206L212.207 91.2894L225.977 100.762ZM66.4062 135.235L171.582 135.626C171.68 115.313 154.98 102.032 135.742 102.032C123.047 102.032 111.914 107.696 105.371 116.485C101.953 115.313 98.8281 114.825 95.0195 114.825C80.7617 114.825 68.9453 123.711 66.4062 135.235Z" fill="black"/>
</g>
<defs>
<clipPath id="clip0_443_3975">
<rect width="307.227" height="196.191" fill="white"/>
</clipPath>
</defs>
</svg>
