<svg width="245" height="223" viewBox="0 0 245 223" fill="none" xmlns="http://www.w3.org/2000/svg">
<g clip-path="url(#clip0_2007_6)">
<path d="M0 193.652C0 208.691 7.22656 216.113 22.2656 216.113H155.664C170.605 216.113 177.93 208.691 177.93 193.652V22.5586C177.93 7.51953 170.605 0 155.664 0H136.523C121.582 0 114.258 7.51953 114.258 22.5586V61.3281C112.109 60.8398 109.57 60.4492 106.836 60.4492H64.2578C61.4258 60.4492 58.9844 60.8398 56.7383 61.3281V49.6094C56.7383 34.5703 49.5117 27.0508 34.5703 27.0508H22.2656C7.22656 27.0508 0 34.5703 0 49.6094V193.652ZM14.7461 192.48V50.6836C14.7461 44.9219 17.7734 41.7969 23.8281 41.7969H33.0078C39.0625 41.7969 41.9922 44.9219 41.9922 50.6836V201.367H23.8281C17.7734 201.367 14.7461 198.242 14.7461 192.48ZM56.7383 201.367V84.082C56.7383 78.3203 59.7656 75.1953 65.8203 75.1953H105.273C111.328 75.1953 114.258 78.3203 114.258 84.082V201.367H56.7383ZM129.004 201.367V23.6328C129.004 17.8711 132.031 14.7461 138.086 14.7461H154.102C160.254 14.7461 163.184 17.8711 163.184 23.6328V192.48C163.184 198.242 160.254 201.367 154.102 201.367H129.004ZM65.625 94.1406C65.625 97.5586 68.1641 100.195 71.7773 100.195H99.5117C102.93 100.195 105.566 97.5586 105.566 94.1406C105.566 90.8203 102.93 88.1836 99.5117 88.1836H71.7773C68.1641 88.1836 65.625 90.8203 65.625 94.1406ZM65.625 182.422C65.625 185.84 68.1641 188.477 71.7773 188.477H99.5117C102.93 188.477 105.566 185.84 105.566 182.422C105.566 179.102 102.93 176.465 99.5117 176.465H71.7773C68.1641 176.465 65.625 179.102 65.625 182.422ZM186.719 196.387C188.574 211.23 196.484 218.164 211.426 216.113L221.582 214.746C236.523 212.695 242.676 204.785 241.016 189.941L224.219 43.9453C222.461 29.1016 214.453 22.0703 199.512 24.2188L189.355 25.5859C174.316 27.7344 168.066 35.5469 169.824 50.3906L186.719 196.387ZM201.172 193.457L184.668 49.8047C183.984 44.043 186.621 40.8203 192.676 39.9414L199.707 39.0625C205.762 38.1836 209.082 41.1133 209.766 46.7773L226.27 190.43C226.953 196.289 224.316 199.414 218.359 200.293L211.133 201.27C205.176 202.148 201.855 199.316 201.172 193.457Z" fill="#FF942F"/>
</g>
<defs>
<clipPath id="clip0_2007_6">
<rect width="244.922" height="222.949" fill="white"/>
</clipPath>
</defs>
</svg>
