<svg width="137" height="197" viewBox="0 0 137 197" fill="none" xmlns="http://www.w3.org/2000/svg">
<g clip-path="url(#clip0_443_3984)">
<path d="M21.9727 191.504H111.328C125.684 191.504 133.301 183.691 133.301 168.262V100.977C133.301 85.6445 125.684 77.832 111.328 77.832H21.9727C7.61719 77.832 0 85.6445 0 100.977V168.262C0 183.691 7.61719 191.504 21.9727 191.504ZM22.4609 176.758C18.2617 176.758 15.8203 174.121 15.8203 169.336V99.9023C15.8203 95.1172 18.2617 92.5781 22.4609 92.5781H110.84C115.137 92.5781 117.48 95.1172 117.48 99.9023V169.336C117.48 174.121 115.137 176.758 110.84 176.758H22.4609ZM17.0898 85.3516H32.6172V52.4414C32.6172 27.7344 48.3398 14.7461 66.6016 14.7461C84.8633 14.7461 100.781 27.7344 100.781 52.4414V85.3516H116.211V54.4922C116.211 17.7734 92.1875 0 66.6016 0C41.1133 0 17.0898 17.7734 17.0898 54.4922V85.3516Z" fill="black"/>
</g>
<defs>
<clipPath id="clip0_443_3984">
<rect width="136.914" height="196.582" fill="white"/>
</clipPath>
</defs>
</svg>
