<svg width="203" height="200" viewBox="0 0 203 200" fill="none" xmlns="http://www.w3.org/2000/svg">
<g clip-path="url(#clip0_2007_16)">
<path d="M99.6094 199.219C154.59 199.219 199.219 154.59 199.219 99.6094C199.219 44.6289 154.59 0 99.6094 0C44.6289 0 0 44.6289 0 99.6094C0 154.59 44.6289 199.219 99.6094 199.219ZM99.6094 182.617C53.7109 182.617 16.6016 145.508 16.6016 99.6094C16.6016 53.7109 53.7109 16.6016 99.6094 16.6016C145.508 16.6016 182.617 53.7109 182.617 99.6094C182.617 145.508 145.508 182.617 99.6094 182.617Z" fill="#FF942F"/>
<path d="M99.6094 50.3906C95.4102 50.3906 91.8945 53.8086 91.8945 57.9102V112.793L92.5781 133.203C92.7734 137.598 96.0938 139.941 99.6094 139.941C103.125 139.941 106.543 137.598 106.641 133.203L107.422 112.793V57.9102C107.422 53.8086 103.809 50.3906 99.6094 50.3906ZM99.6094 148.828C101.562 148.828 103.32 148.242 105.273 146.289L137.402 115.234C138.965 113.77 139.746 112.207 139.746 110.059C139.746 106.055 136.719 103.223 132.617 103.223C130.762 103.223 128.711 104.004 127.344 105.566L112.5 121.387L99.6094 135.059L86.7188 121.387L71.875 105.566C70.5078 104.004 68.3594 103.223 66.5039 103.223C62.4023 103.223 59.4727 106.055 59.4727 110.059C59.4727 112.207 60.2539 113.77 61.7188 115.234L93.9453 146.289C95.8984 148.242 97.6562 148.828 99.6094 148.828Z" fill="#FF942F"/>
</g>
<defs>
<clipPath id="clip0_2007_16">
<rect width="202.832" height="199.316" fill="white"/>
</clipPath>
</defs>
</svg>
