<svg width="234" height="180" viewBox="0 0 234 180" fill="none" xmlns="http://www.w3.org/2000/svg">
<g clip-path="url(#clip0_2007_26)">
<path d="M10.4492 32.9102V46.6797H219.824V32.9102H10.4492ZM41.2109 179.785H191.504C216.113 179.785 230.273 164.941 230.273 138.574V41.3086C230.273 14.9414 216.113 0 191.504 0H41.2109C14.9414 0 0 14.9414 0 41.3086V138.574C0 164.941 14.9414 179.785 41.2109 179.785ZM41.3086 164.062C25.0977 164.062 15.7227 154.785 15.7227 138.574V41.3086C15.7227 25.0977 25.0977 15.7227 41.3086 15.7227H188.965C205.176 15.7227 214.551 25.0977 214.551 41.3086V138.574C214.551 154.785 205.176 164.062 188.965 164.062H41.3086Z" fill="#b0a4f5"/>
</g>
<defs>
<clipPath id="clip0_2007_26">
<rect width="233.887" height="179.785" fill="white"/>
</clipPath>
</defs>
</svg>
