<svg viewBox="0 0 189 150" fill="none" xmlns="http://www.w3.org/2000/svg">
  <path fill-rule="evenodd" clip-rule="evenodd" d="M183 47 L178 37 L171 27 L162 18 L154 12 L143 6 L138 5 L135 3 L120 0 L106 0 L86 5 L69 15 L56 28 L33 29 L23 33 L13 41 L8 50 L8 55 L11 59 L16 59 L20 55 L22 50 L29 43 L40 39 L47 39 L48 40 L42 55 L40 64 L40 72 L20 77 L13 81 L6 89 L3 98 L3 105 L5 113 L8 119 L14 125 L21 129 L28 131 L43 131 L50 129 L57 125 L60 125 L68 133 L77 139 L87 144 L101 148 L119 149 L141 144 L151 139 L162 131 L170 123 L180 108 L185 96 L188 81 L187 61 Z M118 121 L119 122 L119 136 L118 137 L104 137 L103 136 L113 127 L115 123 Z M20 91 L29 85 L39 83 L41 87 L41 91 L44 101 L53 117 L47 120 L33 120 L25 117 L18 110 L16 103 L17 97 Z M117 80 L118 81 L118 97 L117 98 L117 103 L113 112 L109 117 L102 123 L89 129 L83 130 L73 123 L63 112 L59 106 L54 95 L54 92 L57 89 L64 85 L71 83 L87 82 L88 81 L102 81 L103 80 Z M51 75 L52 61 L57 46 L65 34 L71 28 L78 26 L94 26 L95 27 L98 27 L105 30 L109 33 L114 39 L116 43 L117 51 L118 52 L118 66 L117 67 L114 67 L113 68 L97 68 L96 69 L70 70 L69 71 L61 72 L52 76 Z M103 12 L112 12 L113 11 L116 12 L125 12 L126 13 L136 15 L146 20 L152 24 L163 35 L169 44 L174 56 L174 59 L176 64 L177 77 L176 78 L176 86 L175 87 L174 94 L170 102 L170 104 L164 113 L153 124 L144 130 L135 134 L134 133 L134 47 L133 46 L132 38 L127 29 L119 21 L112 17 L103 14 L102 13 Z" fill="currentColor"/>
</svg>
