<svg viewBox="0 0 151 150" fill="none" xmlns="http://www.w3.org/2000/svg">
  <path fill-rule="evenodd" clip-rule="evenodd" d="M19 16 L8 30 L3 41 L1 48 L1 53 L0 54 L0 67 L1 68 L2 77 L7 89 L13 98 L22 107 L31 113 L40 117 L47 119 L51 119 L52 120 L69 120 L83 116 L96 109 L132 146 L138 149 L143 148 L147 143 L147 138 L146 136 L108 98 L108 96 L112 90 L118 76 L119 65 L120 64 L120 53 L119 52 L119 47 L117 40 L111 28 L105 20 L90 8 L82 4 L72 1 L67 1 L66 0 L54 0 L53 1 L47 1 L43 3 L40 3 L28 9 Z M54 12 L67 12 L68 13 L72 13 L78 15 L90 22 L97 29 L102 36 L106 45 L106 48 L108 53 L108 68 L104 81 L99 89 L86 101 L76 106 L69 108 L51 108 L41 105 L31 99 L22 90 L15 78 L13 72 L13 68 L12 67 L12 53 L13 52 L13 48 L15 42 L22 30 L29 23 L36 18 L45 14 L53 13 Z" fill="currentColor"/>
</svg>
